<mxfile host="app.diagrams.net" modified="2023-10-17T05:16:47.537Z" agent="Mozilla/5.0 (Windows NT 10.0; Win64; x64; rv:109.0) Gecko/20100101 Firefox/118.0" etag="hk7cBtd7Bu-j8ZO-Uhjr" version="22.0.4" type="github">
  <diagram id="R2lEEEUBdFMjLlhIrx00" name="Page-1">
    <mxGraphModel dx="880" dy="470" grid="1" gridSize="10" guides="1" tooltips="1" connect="1" arrows="1" fold="1" page="1" pageScale="1" pageWidth="850" pageHeight="1100" math="0" shadow="0" extFonts="Permanent Marker^https://fonts.googleapis.com/css?family=Permanent+Marker">
      <root>
        <mxCell id="0" />
        <mxCell id="1" parent="0" />
        <mxCell id="0wMbGJTO-L8vv-sxoHu4-6" value="" style="edgeStyle=orthogonalEdgeStyle;rounded=0;orthogonalLoop=1;jettySize=auto;html=1;" edge="1" parent="1" source="0wMbGJTO-L8vv-sxoHu4-3" target="0wMbGJTO-L8vv-sxoHu4-5">
          <mxGeometry relative="1" as="geometry" />
        </mxCell>
        <mxCell id="0wMbGJTO-L8vv-sxoHu4-3" value="START" style="shape=hexagon;perimeter=hexagonPerimeter2;whiteSpace=wrap;html=1;fixedSize=1;rounded=1;" vertex="1" parent="1">
          <mxGeometry x="350" width="90" height="30" as="geometry" />
        </mxCell>
        <mxCell id="0wMbGJTO-L8vv-sxoHu4-8" value="" style="edgeStyle=orthogonalEdgeStyle;rounded=0;orthogonalLoop=1;jettySize=auto;html=1;" edge="1" parent="1" source="0wMbGJTO-L8vv-sxoHu4-5" target="0wMbGJTO-L8vv-sxoHu4-7">
          <mxGeometry relative="1" as="geometry" />
        </mxCell>
        <mxCell id="0wMbGJTO-L8vv-sxoHu4-5" value="&lt;div&gt;LA&lt;/div&gt;&lt;div&gt;a&lt;/div&gt;&lt;div&gt;t&lt;br&gt;&lt;/div&gt;" style="shape=parallelogram;perimeter=parallelogramPerimeter;whiteSpace=wrap;html=1;fixedSize=1;rounded=1;" vertex="1" parent="1">
          <mxGeometry x="347.5" y="60" width="95" height="40" as="geometry" />
        </mxCell>
        <mxCell id="0wMbGJTO-L8vv-sxoHu4-10" value="" style="edgeStyle=orthogonalEdgeStyle;rounded=0;orthogonalLoop=1;jettySize=auto;html=1;" edge="1" parent="1" source="0wMbGJTO-L8vv-sxoHu4-7" target="0wMbGJTO-L8vv-sxoHu4-9">
          <mxGeometry relative="1" as="geometry" />
        </mxCell>
        <mxCell id="0wMbGJTO-L8vv-sxoHu4-7" value="LA=1\2xax1" style="rhombus;whiteSpace=wrap;html=1;rounded=1;" vertex="1" parent="1">
          <mxGeometry x="330" y="140" width="130" height="80" as="geometry" />
        </mxCell>
        <mxCell id="0wMbGJTO-L8vv-sxoHu4-14" value="" style="edgeStyle=orthogonalEdgeStyle;rounded=0;orthogonalLoop=1;jettySize=auto;html=1;" edge="1" parent="1" source="0wMbGJTO-L8vv-sxoHu4-9" target="0wMbGJTO-L8vv-sxoHu4-13">
          <mxGeometry relative="1" as="geometry" />
        </mxCell>
        <mxCell id="0wMbGJTO-L8vv-sxoHu4-9" value="1\2xaxt" style="whiteSpace=wrap;html=1;rounded=1;" vertex="1" parent="1">
          <mxGeometry x="335" y="260" width="120" height="50" as="geometry" />
        </mxCell>
        <mxCell id="0wMbGJTO-L8vv-sxoHu4-16" value="" style="edgeStyle=orthogonalEdgeStyle;rounded=0;orthogonalLoop=1;jettySize=auto;html=1;" edge="1" parent="1" source="0wMbGJTO-L8vv-sxoHu4-13" target="0wMbGJTO-L8vv-sxoHu4-15">
          <mxGeometry relative="1" as="geometry" />
        </mxCell>
        <mxCell id="0wMbGJTO-L8vv-sxoHu4-13" value="1\2xaxt" style="whiteSpace=wrap;html=1;rounded=1;" vertex="1" parent="1">
          <mxGeometry x="335" y="350" width="120" height="50" as="geometry" />
        </mxCell>
        <mxCell id="0wMbGJTO-L8vv-sxoHu4-18" value="" style="edgeStyle=orthogonalEdgeStyle;rounded=0;orthogonalLoop=1;jettySize=auto;html=1;" edge="1" parent="1" source="0wMbGJTO-L8vv-sxoHu4-15" target="0wMbGJTO-L8vv-sxoHu4-17">
          <mxGeometry relative="1" as="geometry" />
        </mxCell>
        <mxCell id="0wMbGJTO-L8vv-sxoHu4-15" value="LA" style="shape=parallelogram;perimeter=parallelogramPerimeter;whiteSpace=wrap;html=1;fixedSize=1;rounded=1;" vertex="1" parent="1">
          <mxGeometry x="310" y="430" width="170" height="40" as="geometry" />
        </mxCell>
        <mxCell id="0wMbGJTO-L8vv-sxoHu4-17" value="END" style="shape=hexagon;perimeter=hexagonPerimeter2;whiteSpace=wrap;html=1;fixedSize=1;rounded=1;" vertex="1" parent="1">
          <mxGeometry x="335" y="500" width="120" height="30" as="geometry" />
        </mxCell>
      </root>
    </mxGraphModel>
  </diagram>
</mxfile>
